<svg xmlns="http://www.w3.org/2000/svg" viewBox="0 0 3760.57 2834.91"><defs><style>.cls-1{fill:#d8cecd;}.cls-2{fill:#ff8211;}</style></defs><title>Ativo 1</title><g id="Camada_2" data-name="Camada 2"><g id="Camada_1-2" data-name="Camada 1"><path class="cls-1" d="M344,656c-25.2,41.84-80.63,59.42-129.37,59.42-117.8,0-184.07-85.74-184.07-188.83V220.68H178.43V495.3c0,47.56,25.36,83.73,78,83.73,1.36.06,2.72.1,4.08.09s2.72,0,4.08-.13,2.71-.19,4.07-.33,2.69-.34,4-.56,2.68-.48,4-.77,2.64-.62,4-1,2.61-.76,3.9-1.19,2.58-.89,3.84-1.39,2.52-1,3.76-1.59,2.46-1.16,3.66-1.79,2.4-1.3,3.57-2,2.33-1.42,3.46-2.17,2.24-1.53,3.34-2.34,2.16-1.66,3.21-2.53,2.07-1.76,3.07-2.69,2-1.87,2.92-2.84,1.88-2,2.77-3,1.77-2.07,2.61-3.14,1.65-2.16,2.44-3.27,1.54-2.25,2.26-3.4,1.42-2.33,2.08-3.51,1.28-2.4,1.88-3.62,1.16-2.47,1.7-3.72,1-2.52,1.5-3.79.89-2.58,1.29-3.88.75-2.61,1.08-3.93.62-2.65.88-4,.48-2.68.66-4,.34-2.7.45-4.06.19-2.71.23-4.07.05-2.72,0-4.08-.09-2.72-.2-4.07V220.68h148.2V618.33a766.12,766.12,0,0,0,4.76,86.6H347.3A338.76,338.76,0,0,1,344,656Z" transform="translate(1095.49 570.84)"/><path class="cls-1" d="M945.68,889.65V665.91c-21.4,30.15-66.11,49.62-126.83,49.62-138.27,0-239.58-106.23-239.58-253.69,0-144.13,95.14-252.08,233.82-252.08,85.63,0,125.58,38.81,136.38,59.3V221.48h141.1V889.65ZM838.05,583c57.4,0,108.84-40,108.84-120.94S896.06,342.67,838.05,342.67,729,381.65,729,462.36,781.13,583,838.05,583Z" transform="translate(1095.49 570.84)"/><path class="cls-1" d="M1220.18,704.6V0h145.13V266.56c20.44-30.12,73.9-57.41,140.17-57.41,140.18,0,224.83,107,224.83,252.12,0,147.91-95.14,253.7-230.71,253.7-63.42,0-113.85-28.23-136.34-65.35v54.54Zm254-361.93c-57.41,0-110,37.89-110,119.69s52.61,120.94,110,120.94,109.25-39.95,109.25-120.94-52.81-119.69-110.06-119.69Z" transform="translate(1095.49 570.84)"/><path class="cls-1" d="M1939.82,425.23l113.85-17.62c26.32-3.79,35.07-15.84,35.07-33,0-28.22-24.43-52.61-71-52.61q-3.76-.27-7.55-.16t-7.53.58a75.19,75.19,0,0,0-7.44,1.31,73.34,73.34,0,0,0-7.28,2q-3.59,1.19-7.05,2.71t-6.75,3.4q-3.28,1.86-6.39,4c-2.06,1.44-4,3-6,4.63a74.82,74.82,0,0,0-5.49,5.19q-2.62,2.73-5,5.7a75.37,75.37,0,0,0-4.38,6.15c-1.37,2.12-2.62,4.31-3.77,6.55s-2.19,4.54-3.11,6.88-1.73,4.74-2.42,7.16a73.93,73.93,0,0,0-1.72,7.35q-.69,3.72-1,7.49l-128.57-26.17c5.85-69.13,70.07-160.81,212.3-160.81,156.66,0,214.67,87.69,214.67,186.94v236.6a460.59,460.59,0,0,0,5.89,75H2105.68a241.91,241.91,0,0,1-4.76-54.55c-25.36,40.92-72.12,68.17-136.34,68.17-106.07,0-167.42-70.06-167.42-147C1796.67,485.62,1859.92,437,1939.82,425.23Zm148.92,89.58V493.4L1997.23,508c-31.68,4.93-54.54,19.52-54.54,53.58,0,25.24,15.88,49.63,57.4,49.63C2044,611.2,2088.74,589.79,2088.74,514.81Z" transform="translate(1095.49 570.84)"/><path class="cls-1" d="M2665.07,366.85a195.64,195.64,0,0,0-46.76-4.91c-59.3,0-112.88,35-112.88,131.42V704.57H2357.48V220.8h142.71v64.71c25.36-54.55,86.71-70.07,125.58-70.07a147.29,147.29,0,0,1,39,4.75Z" transform="translate(1095.49 570.84)"/><path class="cls-2" d="M511.42,1427.11c0,43.74,3,76,4,86.56H372.74A343.75,343.75,0,0,1,369,1466.9c-22.37,33.14-71,57.57-129.56,57.57C103.2,1524.47,0,1419.33,0,1270.78c0-144.13,97.32-252.13,234.51-252.13,82.76,0,118.88,31.73,130.49,49.63V808.61H511Zm-253.69-35c57.41,0,109.09-40.92,109.09-120.94s-51.68-119.73-109.09-119.73-109.09,39-109.09,119.73,52.41,120.5,109.69,120.5Z" transform="translate(1095.49 570.84)"/><path class="cls-2" d="M753.83,1233.85l114-17.58c26.32-4,35-15.84,35-33,0-28.22-24.19-52.64-71-52.64-2.52-.18-5-.23-7.55-.16s-5,.27-7.53.58-5,.75-7.45,1.31-4.88,1.23-7.27,2-4.74,1.7-7,2.72-4.55,2.16-6.75,3.4-4.32,2.58-6.38,4-4.05,3-6,4.63a78.42,78.42,0,0,0-10.45,10.9q-2.34,3-4.38,6.15c-1.36,2.12-2.61,4.31-3.76,6.55s-2.18,4.54-3.1,6.89-1.74,4.73-2.43,7.15-1.26,4.88-1.71,7.36-.79,5-1,7.49l-128.56-26.16c5.85-69.14,70.07-160.78,212.3-160.78,156.65,0,214.18,87.68,214.18,186.94v236.56a490.1,490.1,0,0,0,5.73,75H919.36a242.35,242.35,0,0,1-4.76-54.54c-25.36,40.92-72.12,68.21-136.34,68.21-106.07,0-167.42-70.11-167.42-147C610.84,1294.28,674.09,1245.7,753.83,1233.85ZM903,1323.46v-21.32l-91.47,14.55c-31.73,4.92-54.55,19.51-54.55,53.62,0,25.2,15.85,49.63,57.41,49.63,43.74,0,88.69-21.41,88.69-96.39Z" transform="translate(1095.49 570.84)"/><path class="cls-2" d="M1191,1699.23l110-251.15-203.42-418.75h165.52L1381,1288.39l107.16-259.06h156.82L1347,1699.23Z" transform="translate(1095.49 570.84)"/><path class="cls-1" d="M337,2264c-782.81,8.3-1424.13-619.58-1432.39-1402.4S-475.82-562.54,307-570.84h30v253.69C-305.7-324.65-832.8,190.28-840.18,833S-332.79,2002.8,309.93,2010.17H337.1Z" transform="translate(1095.49 570.84)"/></g></g></svg>