<svg xmlns="http://www.w3.org/2000/svg" xmlns:xlink="http://www.w3.org/1999/xlink" width="600" zoomAndPan="magnify" viewBox="0 0 450 179.999997" height="240" preserveAspectRatio="xMidYMid meet" version="1.0"><path fill="#fafafa" d="M 197.019531 132.089844 C 196.660156 130.160156 196.507812 128.210938 196.554688 126.242188 C 195.796875 127.457031 194.871094 128.515625 193.769531 129.425781 C 192.667969 130.335938 191.453125 131.050781 190.121094 131.566406 C 187.203125 132.785156 184.164062 133.386719 181 133.375 C 174.144531 133.375 168.761719 131.210938 164.851562 126.882812 C 160.941406 122.550781 158.960938 117.171875 158.902344 110.734375 L 158.902344 73.976562 L 176.675781 73.976562 L 176.675781 106.953125 C 176.617188 108.265625 176.796875 109.546875 177.210938 110.796875 C 177.621094 112.042969 178.242188 113.179688 179.070312 114.199219 C 180.667969 116.070312 182.988281 117.003906 186.03125 117.003906 C 187.351562 117.066406 188.628906 116.859375 189.859375 116.382812 C 191.089844 115.90625 192.171875 115.195312 193.101562 114.261719 C 194.003906 113.285156 194.679688 112.171875 195.136719 110.925781 C 195.59375 109.683594 195.792969 108.394531 195.738281 107.070312 L 195.738281 73.976562 L 213.507812 73.976562 L 213.507812 121.679688 C 213.488281 125.164062 213.679688 128.632812 214.085938 132.089844 Z M 197.019531 132.089844 " fill-opacity="1" fill-rule="nonzero"/><path fill="#fafafa" d="M 279.980469 154.332031 L 262.558594 154.332031 L 262.558594 127.410156 C 259.753906 131.375 254.6875 133.359375 247.359375 133.359375 C 239.015625 133.359375 232.136719 130.492188 226.726562 124.765625 C 221.3125 119.035156 218.601562 111.726562 218.589844 102.835938 C 218.589844 94.105469 221.203125 86.875 226.429688 81.148438 C 231.652344 75.417969 238.394531 72.554688 246.65625 72.554688 C 251.1875 72.554688 254.832031 73.316406 257.585938 74.84375 C 260.339844 76.367188 262.152344 77.984375 263.023438 79.695312 L 263.023438 73.976562 L 279.980469 73.976562 Z M 240.398438 92.332031 C 237.867188 94.832031 236.601562 98.378906 236.601562 102.972656 C 236.601562 107.570312 237.867188 111.136719 240.398438 113.675781 C 241.015625 114.277344 241.679688 114.816406 242.398438 115.289062 C 243.121094 115.761719 243.878906 116.160156 244.671875 116.488281 C 245.46875 116.8125 246.292969 117.058594 247.136719 117.222656 C 247.980469 117.390625 248.832031 117.472656 249.695312 117.472656 C 250.554688 117.472656 251.40625 117.390625 252.253906 117.222656 C 253.097656 117.058594 253.917969 116.8125 254.714844 116.488281 C 255.511719 116.160156 256.269531 115.761719 256.988281 115.289062 C 257.707031 114.816406 258.375 114.277344 258.988281 113.675781 C 261.519531 111.140625 262.785156 107.574219 262.785156 102.972656 C 262.785156 98.371094 261.519531 94.824219 258.988281 92.332031 C 258.367188 91.738281 257.699219 91.207031 256.976562 90.742188 C 256.257812 90.277344 255.5 89.882812 254.703125 89.5625 C 253.90625 89.242188 253.085938 89 252.246094 88.839844 C 251.402344 88.675781 250.550781 88.59375 249.695312 88.59375 C 248.835938 88.59375 247.984375 88.675781 247.144531 88.839844 C 246.300781 89 245.480469 89.242188 244.683594 89.5625 C 243.890625 89.882812 243.128906 90.277344 242.410156 90.742188 C 241.6875 91.207031 241.019531 91.738281 240.398438 92.332031 Z M 240.398438 92.332031 " fill-opacity="1" fill-rule="nonzero"/><path fill="#fafafa" d="M 305.679688 132.089844 L 288.496094 132.089844 L 288.496094 47.441406 L 305.917969 47.441406 L 305.917969 79.472656 C 307.238281 77.523438 309.421875 75.886719 312.464844 74.5625 C 315.753906 73.179688 319.1875 72.515625 322.753906 72.574219 C 331.015625 72.574219 337.582031 75.40625 342.457031 81.070312 C 347.328125 86.738281 349.761719 94.003906 349.757812 102.871094 C 349.757812 111.761719 347.167969 119.070312 341.988281 124.800781 C 336.808594 130.527344 330.164062 133.390625 322.050781 133.390625 C 318.566406 133.460938 315.253906 132.738281 312.113281 131.222656 C 309.410156 129.972656 307.265625 128.082031 305.679688 125.554688 Z M 331.960938 102.972656 C 331.960938 98.300781 330.714844 94.734375 328.21875 92.273438 C 326.980469 91.046875 325.546875 90.113281 323.925781 89.472656 C 322.300781 88.835938 320.617188 88.539062 318.871094 88.59375 C 317.121094 88.550781 315.429688 88.851562 313.800781 89.492188 C 312.171875 90.132812 310.730469 91.066406 309.480469 92.289062 C 306.949219 94.742188 305.679688 98.3125 305.679688 102.992188 C 305.679688 107.671875 306.96875 111.238281 309.539062 113.691406 C 310.773438 114.933594 312.203125 115.886719 313.824219 116.546875 C 315.449219 117.207031 317.136719 117.519531 318.890625 117.488281 C 320.632812 117.527344 322.3125 117.214844 323.925781 116.554688 C 325.542969 115.890625 326.957031 114.9375 328.179688 113.691406 C 330.699219 111.148438 331.960938 107.574219 331.960938 102.972656 Z M 331.960938 102.972656 " fill-opacity="1" fill-rule="nonzero"/><path fill="#fafafa" d="M 351.457031 116.085938 C 351.457031 111.175781 353.054688 107.210938 356.25 104.1875 C 357.976562 102.632812 359.898438 101.367188 362.015625 100.402344 C 364.128906 99.433594 366.34375 98.808594 368.652344 98.519531 L 382.324219 96.421875 C 385.160156 96.03125 386.5625 94.703125 386.53125 92.445312 C 386.535156 91.554688 386.335938 90.710938 385.933594 89.917969 C 385.535156 89.125 384.972656 88.464844 384.253906 87.9375 C 383.753906 87.617188 383.230469 87.335938 382.6875 87.097656 C 382.140625 86.859375 381.582031 86.660156 381.007812 86.507812 C 380.433594 86.359375 379.847656 86.25 379.257812 86.191406 C 378.664062 86.128906 378.070312 86.113281 377.476562 86.144531 C 376.882812 86.175781 376.296875 86.253906 375.714844 86.378906 C 375.132812 86.5 374.5625 86.667969 374.007812 86.878906 C 373.449219 87.09375 372.914062 87.347656 372.398438 87.640625 C 371.882812 87.9375 371.390625 88.273438 370.929688 88.644531 C 370.078125 89.421875 369.402344 90.332031 368.910156 91.375 C 368.414062 92.414062 368.132812 93.511719 368.0625 94.660156 L 352.628906 91.507812 C 353.019531 86.675781 355.417969 82.253906 359.820312 78.242188 C 364.222656 74.230469 370.320312 72.222656 378.117188 72.214844 C 386.921875 72.214844 393.410156 74.320312 397.582031 78.53125 C 401.75 82.742188 403.835938 88.125 403.835938 94.679688 L 403.835938 123.089844 C 403.785156 126.117188 404.019531 129.121094 404.542969 132.101562 L 388.519531 132.101562 C 388.070312 129.9375 387.875 127.753906 387.933594 125.546875 C 384.585938 131.003906 379.128906 133.730469 371.566406 133.730469 C 365.414062 133.730469 360.523438 131.996094 356.894531 128.53125 C 356.03125 127.742188 355.257812 126.875 354.574219 125.921875 C 353.894531 124.972656 353.320312 123.960938 352.851562 122.890625 C 352.382812 121.816406 352.03125 120.707031 351.792969 119.5625 C 351.558594 118.414062 351.449219 117.257812 351.457031 116.085938 Z M 375.890625 120.882812 C 377.285156 120.929688 378.636719 120.71875 379.949219 120.253906 C 381.261719 119.789062 382.445312 119.097656 383.5 118.1875 C 385.519531 116.402344 386.53125 113.441406 386.53125 109.304688 L 386.53125 106.753906 L 375.542969 108.4375 C 371.175781 109.136719 368.992188 111.277344 369 114.863281 C 368.980469 115.65625 369.121094 116.425781 369.417969 117.160156 C 369.710938 117.898438 370.140625 118.550781 370.699219 119.113281 C 371.820312 120.28125 373.550781 120.863281 375.890625 120.863281 Z M 375.890625 120.882812 " fill-opacity="1" fill-rule="nonzero"/><path fill="#fafafa" d="M 449.5 73.976562 L 449.5 91.515625 C 447.652344 91.101562 445.78125 90.90625 443.882812 90.929688 C 442.058594 90.867188 440.300781 91.167969 438.601562 91.839844 C 436.90625 92.511719 435.414062 93.496094 434.128906 94.789062 C 431.59375 97.367188 430.328125 101.332031 430.328125 106.6875 L 430.328125 132.066406 L 412.554688 132.066406 L 412.554688 73.976562 L 429.742188 73.976562 L 429.742188 81.8125 C 430.386719 80.386719 431.265625 79.121094 432.371094 78.015625 C 433.476562 76.910156 434.742188 76.03125 436.167969 75.386719 C 438.90625 74.085938 441.792969 73.421875 444.828125 73.398438 C 446.414062 73.371094 447.96875 73.5625 449.5 73.976562 Z M 449.5 73.976562 " fill-opacity="1" fill-rule="nonzero"/><path fill="#ff8211" d="M 75.730469 9.851562 L 75.730469 23.761719 C 71.769531 24.109375 67.871094 24.800781 64.035156 25.84375 C 60.199219 26.882812 56.484375 28.253906 52.890625 29.960938 C 49.300781 31.664062 45.886719 33.671875 42.652344 35.984375 C 39.421875 38.296875 36.417969 40.878906 33.644531 43.726562 C 17.316406 60.726562 15.480469 80.816406 15.175781 86.960938 C 14.113281 108.820312 23.785156 132.175781 43.308594 145.65625 C 48.121094 148.925781 53.277344 151.503906 58.78125 153.398438 C 64.28125 155.289062 69.933594 156.425781 75.738281 156.804688 L 75.738281 171 C 69.253906 170.464844 44.011719 167.601562 23.460938 146.351562 C 18.761719 141.5 0.105469 121.007812 0.515625 89.410156 C 0.90625 58.125 19.679688 38.238281 24.832031 33.136719 C 45.042969 13.140625 69.066406 10.402344 75.730469 9.851562 Z M 75.730469 9.851562 " fill-opacity="1" fill-rule="nonzero"/><path fill="#ff8211" d="M 75.867188 75.675781 L 91.234375 75.675781 L 91.234375 91.042969 L 75.867188 91.042969 Z M 75.867188 75.675781 " fill-opacity="1" fill-rule="nonzero"/><path fill="#ff8211" d="M 91.234375 50.808594 L 116.109375 50.808594 L 116.109375 75.683594 L 91.234375 75.683594 Z M 91.234375 50.808594 " fill-opacity="1" fill-rule="nonzero"/><path fill="#ff8211" d="M 116.367188 9 L 158.425781 9 L 158.425781 51.0625 L 116.367188 51.0625 Z M 116.367188 9 " fill-opacity="1" fill-rule="nonzero"/></svg>